<svg width="30px" height="24px" viewBox="0 0 304 243" 
    xmlns="http://www.w3.org/2000/svg" fill="black">
    <path d="M85.623 0c18.658 0 33.849 14.818 34.405 33.307l.016 1.05v40.38c0 7.299-5.266 15.321-13.239 17.888-7.972 2.566-12.828-5.515-13.218-12.465l-.02-.75V34.357c0-4.379-3.557-7.928-7.944-7.928-.353 0-.706.023-1.056.07l-4.608.645-4.423.678c-1.444.231-2.857.467-4.239.709l-4.053.74c-11.22 2.14-20.2 4.645-26.872 7.462-4.286 1.808-7.4 3.656-9.345 5.396-1.212 1.086-1.673 1.808-1.777 2.262-.08.348-.157.73-.233 1.146l-.223 1.343-.21 1.53-.201 1.713-.19 1.886-.18 2.053-.248 3.374-.226 3.705-.203 4.012-.236 5.783-.197 6.223-.192 8.306-.155 10.588-.075 11.072v10.415l.075 11.95.122 9.872.174 9.652.223 9.299.213 7.095.308 8.325.427 9.019.319 5.316.255 3.573.27 3.187.283 2.77.189 1.555.383.383.281.25c1.744 1.498 4.784 3.225 9.07 4.993 4.178 1.722 9.302 3.39 15.356 4.992l3.394.867 3.578.853c1.835.423 3.738.841 5.71 1.254l4.035.818 4.217.802c1.436.265 2.902.527 4.398.787l4.579.771c4.33.708 8.413-2.222 9.122-6.543l.078-.639.026-.642v-26.717c0-24.83 12.927-47.833 34.056-60.793l1.36-.814 32.748-19.105a44.916 44.916 0 0022.277-37.384l.022-1.405V35.16c0-18.975 15.41-34.357 34.42-34.357 1.86 0 3.717.15 5.553.45l4.385.733 4.254.747 4.124.763 3.994.78 3.864.798c.633.135 1.26.27 1.883.406l3.67.828c.6.14 1.195.28 1.785.422l3.475.86 3.346.883c26.252 7.158 40.123 16.639 42.071 31.234l.249 2.033.24 2.303c.04.405.078.822.117 1.248l.227 2.681.325 4.46.204 3.246.38 7.083.339 7.783.226 6.232.202 6.52.175 6.761.233 11.685.102 7.186.09 9.691.038 9.718-.033 12.02-.063 7.064-.137 9.151-.144 6.604-.18 6.331-.216 6.013-.165 3.81-.182 3.633-.2 3.446-.216 3.243-.235 3.028-.253 2.798-.271 2.556c-.047.405-.095.8-.143 1.183l-.3 2.167a43.355 43.355 0 01-.655 3.493c-3.767 15.755-20.16 25.773-49.22 32.616l-3.622.822c-1.843.404-3.733.796-5.67 1.177l-3.939.747-4.065.72c-.688.117-1.381.234-2.08.349l-4.255.68c-1.44.221-2.9.44-4.382.653-18.814 2.715-36.271-10.308-38.99-29.088a34.296 34.296 0 01-.316-3.272l-.04-1.644v-40.113c0-7.298 6.419-16.264 13.24-17.887 6.82-1.624 12.828 5.515 13.217 12.464l.021.75v44.786c0 .38.028.759.082 1.135.628 4.333 4.656 7.339 8.998 6.712l1.928-.283 3.752-.58 3.617-.6c.59-.101 1.176-.203 1.756-.306l3.412-.623 3.275-.637 3.138-.65 3.002-.662 2.865-.67 2.728-.68 2.592-.684 2.455-.69c.398-.116.79-.231 1.176-.347l2.25-.694 2.113-.695 1.976-.694 1.84-.692 1.703-.689a59.484 59.484 0 001.565-.682l1.43-.676c.453-.224.883-.447 1.291-.667l1.155-.658c.181-.108.357-.216.526-.324l.95-.639c1.615-1.159 2.54-2.247 2.772-3.221.076-.318.15-.669.223-1.051l.212-1.241.202-1.424.284-2.464.26-2.836.239-3.185.283-4.748.245-5.27.255-7.237.125-4.647.164-8.175.127-10.387.055-12.677-.013-7.404-.038-6.887-.11-10.69-.16-10.02-.307-13.486-.277-9.05-.392-9.994-.295-6.02-.321-5.424-.17-2.464-.266-3.361-.28-2.932-.186-1.647-.326-.32-.271-.242c-1.721-1.485-4.746-3.207-9.025-4.971-6.455-2.662-15.185-5.195-26.128-7.555l-3.954-.826-4.137-.81-4.32-.797-4.501-.78c-.766-.128-1.539-.256-2.319-.384a7.958 7.958 0 00-1.281-.104c-4.178 0-7.603 3.22-7.92 7.31l-.024.619v26.72c0 24.829-12.926 47.832-34.055 60.792l-1.36.814-32.749 19.106a44.916 44.916 0 00-22.276 37.383l-.022 1.406v26.717c0 1.86-.151 3.716-.452 5.551-3.072 18.726-20.77 31.42-39.53 28.355l-4.366-.731-4.237-.746-4.107-.761-3.978-.778-3.85-.797c-.63-.134-1.256-.27-1.876-.405l-3.656-.826c-.599-.14-1.192-.28-1.78-.42l-3.464-.859-3.336-.88C19.237 227.66 5.335 218.207 3.24 203.696l-.226-1.691-.219-1.897-.211-2.093-.305-3.491-.38-5.263-.264-4.365-.247-4.69-.3-6.708-.204-5.334-.295-9.379-.279-11.893-.167-10.281-.089-8.37-.04-6.315L0 117.013l.02-10.86.084-9.77.149-9.463.216-9.04.223-6.848.196-4.87.303-6.095.35-5.58.294-3.812.212-2.349.224-2.186c.038-.35.077-.694.116-1.03l.243-1.929.256-1.747c.087-.551.176-1.071.268-1.558l.281-1.362C6.878 23.448 21.288 13.537 46.5 6.828l3.35-.857 3.472-.822c.589-.134 1.183-.267 1.782-.398l3.655-.77 3.778-.738c.64-.12 1.285-.24 1.935-.357l3.96-.69c.671-.113 1.347-.224 2.027-.334l4.144-.644c.7-.105 1.407-.21 2.118-.312l4.326-.601A34.483 34.483 0 0185.623 0z" fill="black" fill-rule="nonzero"></path>
</svg>